<?xml version="1.0" standalone="no"?>
<!DOCTYPE svg PUBLIC "-//W3C//DTD SVG 20010904//EN"
 "http://www.w3.org/TR/2001/REC-SVG-20010904/DTD/svg10.dtd">
<svg version="1.0" xmlns="http://www.w3.org/2000/svg"
 width="300.000000pt" height="265.000000pt" viewBox="0 0 300.000000 265.000000"
 preserveAspectRatio="xMidYMid meet">
<metadata>
Created by potrace 1.10, written by Peter Selinger 2001-2011
</metadata>
<g transform="translate(0.000000,265.000000) scale(0.100000,-0.100000)"
fill="#000000" stroke="none">
<path d="M513 2636 c6 -15 -29 -53 -39 -44 -10 11 -78 -13 -102 -35 -52 -48
-52 -41 -52 -554 0 -275 -5 -493 -10 -514 -12 -43 -50 -87 -108 -124 -23 -15
-42 -31 -42 -36 0 -10 52 -59 63 -59 18 0 74 -71 85 -108 8 -27 12 -182 12
-517 -1 -357 3 -484 12 -505 16 -36 83 -80 123 -80 37 0 52 -9 56 -35 3 -11
12 -21 22 -23 14 -3 17 4 17 42 l0 46 -57 0 c-72 0 -103 15 -125 60 -16 32
-18 78 -18 514 0 346 -3 490 -12 519 -16 55 -73 112 -126 128 l-43 12 48 18
c56 21 105 72 121 127 8 28 12 180 12 508 0 282 4 483 10 505 16 57 41 73 121
77 l69 4 0 44 c0 38 -3 44 -21 44 -14 0 -19 -5 -16 -14z"/>
<path d="M2450 2605 l0 -45 55 0 c62 0 108 -19 127 -53 10 -17 14 -144 18
-534 l5 -511 30 -44 c32 -45 109 -92 142 -86 13 2 4 12 -33 35 -57 34 -86 70
-102 123 -6 22 -11 213 -12 509 -1 372 -4 481 -14 506 -18 43 -74 84 -117 86
-37 3 -69 24 -69 46 0 7 -7 13 -15 13 -11 0 -15 -12 -15 -45z"/>
<path d="M261 2622 c-43 -21 -70 -57 -81 -108 -5 -21 -10 -266 -10 -544 0
-471 -2 -508 -19 -546 -21 -46 -64 -81 -111 -91 l-32 -6 36 -12 c56 -19 84
-42 106 -85 19 -38 20 -58 20 -547 0 -279 5 -526 10 -547 5 -22 17 -51 27 -65
25 -34 85 -63 120 -59 26 3 24 5 -28 35 -93 53 -89 24 -89 602 0 551 -1 566
-59 633 l-34 39 22 27 c12 15 33 51 46 79 l25 53 2 522 c3 431 5 527 17 544
16 23 71 60 84 56 5 -1 6 2 2 8 -3 5 1 10 9 10 8 0 18 5 21 10 10 17 -47 11
-84 -8z"/>
<path d="M2678 2618 c55 -26 98 -69 105 -104 2 -15 5 -250 6 -522 1 -273 4
-507 7 -521 9 -42 26 -74 58 -108 l30 -33 -33 -41 c-60 -74 -61 -81 -61 -638
-1 -577 3 -554 -83 -601 -64 -35 -69 -44 -20 -37 46 5 96 36 116 70 9 17 13
157 17 562 5 537 5 540 28 582 24 46 52 68 108 88 l36 12 -32 6 c-46 10 -87
43 -113 90 -22 42 -22 47 -27 584 -5 528 -6 542 -26 570 -26 36 -80 63 -124
62 l-35 0 43 -21z"/>
<path d="M1123 2105 c-65 -20 -127 -60 -173 -112 -140 -159 -169 -408 -70
-610 l30 -61 -20 -34 c-35 -60 -60 -150 -66 -238 -15 -214 80 -402 244 -482
l67 -33 522 -3 523 -3 0 171 0 170 -440 0 c-476 0 -489 1 -523 53 -37 57 -31
144 14 201 l20 26 465 0 464 0 0 175 0 175 -454 0 -454 0 -31 25 c-73 62 -65
189 16 242 24 16 64 17 474 15 l449 -3 0 171 0 170 -507 -1 c-391 0 -518 -3
-550 -14z m1012 -26 c8 -13 8 -236 0 -249 -3 -6 -173 -9 -424 -10 -230 0 -427
-3 -437 -6 -107 -39 -148 -176 -85 -276 48 -75 58 -76 532 -77 261 -1 406 -4
413 -11 12 -12 9 -240 -3 -252 -4 -5 -201 -8 -438 -9 l-431 -1 -36 -29 c-46
-38 -66 -81 -66 -139 0 -82 39 -145 105 -170 20 -8 158 -11 440 -11 225 0 415
-3 422 -7 18 -11 20 -252 2 -262 -7 -5 -227 -8 -488 -7 -550 2 -537 1 -641 94
-153 139 -189 417 -80 618 22 40 19 66 -20 155 -28 63 -34 90 -38 174 -8 168
30 279 127 376 51 51 82 69 166 98 42 14 972 16 980 1z"/>
<path d="M2760 1298 c-26 -14 -57 -41 -75 -66 l-30 -44 -5 -512 c-5 -471 -6
-514 -23 -539 -23 -35 -54 -47 -123 -47 l-54 0 0 -46 c0 -37 3 -45 17 -42 9 2
20 14 23 28 5 21 13 26 53 30 56 7 96 34 119 81 16 31 18 76 18 508 0 508 2
531 50 579 40 40 80 72 91 72 5 0 9 5 9 10 0 16 -22 12 -70 -12z"/>
</g>
</svg>
